<svg width="15" height="15" viewBox="0 0 15 15" fill="none" xmlns="http://www.w3.org/2000/svg">
<path d="M7.50005 0C6.85137 0 6.20176 0.260316 5.70903 0.781901L1.01131 5.76602C0.363544 6.453 0 7.38559 0 8.35641V12.7257C0 13.9754 0.964253 15.001 2.14259 15H4.25566C4.93663 15 5.4995 14.404 5.4995 13.6809V10.6726C5.4995 9.51101 6.37796 8.58035 7.47324 8.58035H7.52584C8.62112 8.58035 9.49958 9.51001 9.49958 10.6726V13.6809C9.49958 14.4031 10.0615 15 10.7434 15H12.8574C14.0357 15 15 13.9754 15 12.7257V8.35641C15 7.38466 14.6364 6.45205 13.9887 5.76602L9.29097 0.781901C8.79824 0.259339 8.14874 0 7.50005 0Z" fill="#7C788A"/>
</svg>
