<svg width="14" height="20" viewBox="0 0 14 20" fill="none" xmlns="http://www.w3.org/2000/svg">
<path fill-rule="evenodd" clip-rule="evenodd" d="M10.5 4.285H11.9C13.0576 4.285 14 5.24664 14 6.42795V17.857C14 19.0392 13.0576 20 11.9 20H2.1C0.941494 20 0 19.0392 0 17.857V6.42795C0 5.24664 0.941494 4.285 2.1 4.285H3.5V3.57068C3.5 1.60183 5.06975 0 7 0C8.93025 0 10.5 1.60186 10.5 3.57068V4.285ZM3.5 5.71363H2.1C1.71324 5.71363 1.4 6.03417 1.4 6.42795V17.857C1.4 18.2517 1.71324 18.5714 2.1 18.5714H11.9C12.2859 18.5714 12.6 18.2517 12.6 17.857V6.42795C12.6 6.03417 12.2859 5.71363 11.9 5.71363H10.5V7.14227C10.5 7.53694 10.1868 7.85659 9.8 7.85659C9.41324 7.85659 9.1 7.53694 9.1 7.14227V5.71363H4.9V7.14227C4.9 7.53694 4.58676 7.85659 4.2 7.85659C3.81324 7.85659 3.5 7.53694 3.5 7.14227V5.71363ZM9.1 4.285V3.57068C9.1 2.39026 8.15763 1.42861 7 1.42861C5.84237 1.42861 4.9 2.39026 4.9 3.57068V4.285H9.1Z" fill="#1E1E1E"/>
</svg>
