<svg width="77" height="77" viewBox="0 0 77 77" fill="none" xmlns="http://www.w3.org/2000/svg">
<path opacity="0.6" d="M67.5268 47.684C67.6483 47.0758 68.1341 46.7109 68.7413 46.5893L73.7208 46.1027C75.5426 45.8594 77 44.278 77 42.4534V34.6682C77 32.8436 75.5426 31.2622 73.7208 31.019L68.7413 30.5324C68.1341 30.4107 67.6483 30.0458 67.5268 29.4376C67.041 27.7346 66.3123 26.0316 65.4621 24.5719C65.2192 24.0853 65.2192 23.3555 65.5836 22.9905L68.7413 19.0979C69.9558 17.6382 69.8344 15.5703 68.4984 14.2322L62.9117 8.63665C61.5757 7.29858 59.511 7.17694 58.0536 8.39337L54.1672 11.5561C53.6814 11.7994 53.0741 11.7994 52.5883 11.5561C51.0095 10.7046 49.4306 10.0964 47.7303 9.48815C47.123 9.36651 46.7587 8.87994 46.6372 8.27172L46.03 3.28436C45.7871 1.45972 44.2082 0 42.3864 0H34.6136C32.7918 0 31.2129 1.45972 30.97 3.28436L30.4842 8.27172C30.3628 8.87994 29.9984 9.36651 29.3912 9.48815C27.6909 9.97473 25.9905 10.7046 24.5331 11.5561C24.0473 11.7994 23.3186 11.7994 22.9543 11.4344L19.0678 8.27172C17.6104 7.05529 15.5457 7.17694 14.2098 8.51501L8.62303 14.1106C7.28707 15.4487 7.16562 17.5166 8.38013 18.9763L11.5379 22.8689C11.9022 23.3554 11.9022 23.9637 11.6593 24.4502C10.8091 26.0316 10.2019 27.613 9.59464 29.316C9.47319 29.9242 8.98738 30.2891 8.38013 30.4107L3.27918 31.019C1.45741 31.2622 0 32.8436 0 34.6682V42.4534C0 44.278 1.45741 45.8594 3.27918 46.1027L8.25868 46.5893C8.86593 46.7109 9.35174 47.0758 9.47319 47.684C9.95899 49.387 10.6877 51.09 11.5379 52.5498C11.7808 53.0363 11.7808 53.7662 11.4164 54.1311L8.25868 58.0237C7.04417 59.4834 7.16562 61.5513 8.50158 62.8894L14.0883 68.485C15.4243 69.8231 17.489 69.9447 18.9464 68.7283L22.8328 65.5656C23.3186 65.2006 23.9259 65.2006 24.4117 65.4439C25.9905 66.2954 27.5694 66.9036 29.2697 67.5119C29.877 67.6335 30.2413 68.1201 30.3628 68.7283L30.8486 73.7156C31.0915 75.5403 32.6703 77 34.4921 77H42.265C44.0867 77 45.6656 75.5403 45.9085 73.7156L46.3943 68.7283C46.5158 68.1201 46.8801 67.6335 47.4874 67.5119C49.1877 67.0253 50.888 66.2954 52.3454 65.4439C52.8312 65.2006 53.5599 65.2006 53.9243 65.5656L57.8107 68.7283C59.2681 69.9447 61.3328 69.8231 62.6688 68.485L68.2555 62.8894C69.5915 61.5513 69.7129 59.4834 68.4984 58.0237L65.3407 54.1311C65.2192 53.7662 65.2192 53.158 65.4621 52.6714C66.3123 51.09 66.9196 49.387 67.5268 47.684ZM38.5 53.4013C30.3628 53.4013 23.683 46.7109 23.683 38.5608C23.683 30.4107 30.3628 23.7204 38.5 23.7204C46.6372 23.7204 53.317 30.4107 53.317 38.5608C53.317 46.7109 46.6372 53.4013 38.5 53.4013Z" fill="#1E1E1E"/>
</svg>
