<svg width="15" height="16" viewBox="0 0 15 16" fill="none" xmlns="http://www.w3.org/2000/svg">
<path d="M13.9532 7.98029C13.3753 7.98029 12.9063 8.54307 12.9063 9.23663V13.3818H2.09391V9.23663C2.09391 8.54307 1.62493 7.98029 1.04696 7.98029C0.468989 7.98029 0 8.54307 0 9.23663V14.6367C0 15.3303 0.468989 15.8931 1.04696 15.8931H13.9533C14.5313 15.8931 15.0003 15.3303 15.0003 14.6367V9.23663C15.0003 8.54307 14.5312 7.98029 13.9532 7.98029Z" fill="#1E1E1E"/>
<path d="M3.89872 6.95478C4.17607 6.95552 4.44241 6.82327 4.63833 6.58744L6.45303 4.40979V9.95904C6.45303 10.6533 6.92202 11.2154 7.49999 11.2154C8.07796 11.2154 8.54695 10.6533 8.54695 9.95904V4.40904L10.3617 6.58668C10.7719 7.06425 11.4258 7.05763 11.8298 6.57272C12.2345 6.08782 12.2394 5.30315 11.8421 4.81017L8.3412 0.60911C8.14161 0.292451 7.82997 0.106567 7.49935 0.106567C7.16873 0.106567 6.85709 0.292447 6.6575 0.609844L3.15787 4.81015C2.8591 5.16943 2.76909 5.70942 2.93134 6.17889C3.0936 6.64837 3.47503 6.95474 3.8981 6.95474L3.89872 6.95478Z" fill="#1E1E1E"/>
</svg>
